<?xml version="1.0" encoding="UTF-8"?>
<svg version="1.1" xmlns="http://www.w3.org/2000/svg" width="2000" height="2000">
<path d="M0 0 C5.9403352 5.67826158 11.52388899 12.72291538 12.06738281 21.2565918 C12.94666233 84.99924505 -7.62105148 148.42473982 -23.09375 209.7265625 C-23.35171104 210.7485952 -23.60967209 211.7706279 -23.87545013 212.82363129 C-25.61979697 219.73434197 -27.36450432 226.64496159 -29.10935211 233.55554581 C-30.02737844 237.19154364 -30.94530624 240.82756633 -31.86322021 244.46359253 C-34.62226272 255.39203756 -37.38201673 266.32029901 -40.14641857 277.24738979 C-41.30841199 281.84130186 -42.46936846 286.43547561 -43.63014412 291.02969551 C-44.17408528 293.18147428 -44.71849929 295.33313358 -45.26342583 297.48466301 C-46.88698374 303.89531032 -48.5018326 310.30797854 -50.09375 316.7265625 C-50.26878933 317.43108677 -50.44382866 318.13561104 -50.62417221 318.86148453 C-51.07204103 320.67777654 -51.50950698 322.49662524 -51.94604492 324.31567383 C-52.17361984 325.26187088 -52.40119476 326.20806793 -52.63566589 327.18293762 C-53.09872108 329.75416564 -53.1802392 332.11998285 -53.09375 334.7265625 C-52.56910156 334.61699219 -52.04445313 334.50742187 -51.50390625 334.39453125 C-48.7037005 333.82144422 -45.89931883 333.27285832 -43.09375 332.7265625 C-41.87299271 332.4884082 -40.65223541 332.25025391 -39.39448547 332.00488281 C-29.17591021 330.07367448 -19.06807817 328.98025001 -8.69921875 328.2890625 C-6.97734688 328.16742543 -5.25553173 328.04498336 -3.5337677 327.92182922 C0.22136304 327.65499372 3.97683233 327.39386515 7.73266602 327.13711548 C13.88297096 326.71659834 20.03232429 326.28308916 26.18164062 325.84838867 C35.61631363 325.18288421 45.05142755 324.52392527 54.48681641 323.86865234 C76.54655915 322.33627548 98.60512901 320.78714688 120.66352844 319.23556519 C121.52260136 319.17513979 122.38167429 319.1147144 123.26677972 319.05245793 C126.74672644 318.80767555 130.22667259 318.56288506 133.70661175 318.31799531 C143.99539766 317.59397693 154.28435258 316.8724729 164.57361847 316.15530694 C173.51800472 315.53182078 182.46223021 314.90606581 191.40625 314.27734375 C192.1867823 314.22247881 192.9673146 314.16761388 193.7714994 314.11108637 C217.1031212 312.46945283 240.42091317 310.70368071 263.7275629 308.73453808 C278.10248022 307.5215028 292.409321 306.49122331 306.84375 306.4765625 C307.89233185 306.47505188 307.89233185 306.47505188 308.96209717 306.47351074 C319.25315898 306.48350406 328.93541856 306.96202803 338.90625 309.7265625 C339.56334961 309.90300293 340.22044922 310.07944336 340.89746094 310.26123047 C344.92344155 311.3444155 348.92118647 312.49991013 352.90625 313.7265625 C353.807088 329.77482456 350.18195065 344.33248664 339.90625 356.7265625 C338.10560543 358.52720707 335.34998538 358.15253559 332.90847778 358.36662292 C331.61715879 358.48199307 330.32583981 358.59736322 328.99538994 358.71622944 C327.55959937 358.83982569 326.12379849 358.96330204 324.68798828 359.08666992 C323.19193002 359.21841422 321.69590357 359.35052005 320.1999073 359.48296642 C316.23002162 359.83316564 312.25965506 360.17757793 308.2891283 360.52042341 C305.24455583 360.78380463 302.2002355 361.05003125 299.15591037 361.31625348 C288.90453418 362.21218063 278.65166328 363.09037405 268.3984375 363.96484375 C267.53375902 364.03866595 266.66908053 364.11248814 265.77819967 364.18854737 C225.01275945 367.66848503 184.2342552 370.98035557 143.45067382 374.23993409 C136.86565946 374.76654191 130.28091338 375.29641981 123.69628906 375.82788086 C87.47778029 378.75054999 51.26125158 381.67107024 15.00390625 384.07421875 C13.81456104 384.1531304 12.62521584 384.23204205 11.39982986 384.31334496 C-43.83104534 387.95176076 -43.83104534 387.95176076 -70.09375 387.7265625 C-70.18293701 388.85856079 -70.18293701 388.85856079 -70.27392578 390.01342773 C-72.88430148 422.224887 -77.71797442 453.96916217 -83.640625 485.73046875 C-83.85567499 486.88798834 -84.07072498 488.04550793 -84.29229164 489.23810387 C-88.99521274 514.5276058 -93.98987507 539.75629439 -99.06428146 564.97348785 C-100.05358906 569.89343888 -101.03964645 574.81403968 -102.02591801 579.73460007 C-108.65577416 612.80537364 -115.36769663 645.85916176 -122.11358643 678.90643311 C-145.16502868 791.83319945 -167.45430048 904.90211909 -229.59564972 1252.75186157 C-230.10163965 1255.77368022 -230.60815296 1258.79541086 -231.11468506 1261.81713867 C-238.90053869 1308.28874825 -246.47786078 1354.78994426 -253.5546875 1401.375 C-253.6700663 1402.13427528 -253.78544511 1402.89355056 -253.90432024 1403.67583418 C-256.29683553 1419.4229733 -258.67655477 1435.17199037 -261.03108406 1450.92485523 C-262.06850489 1457.86461323 -263.11031066 1464.80370832 -264.15625 1471.7421875 C-264.25751993 1472.41404815 -264.35878985 1473.0859088 -264.46312857 1473.77812886 C-268.74901097 1502.1814247 -273.5653543 1530.48058414 -278.57033348 1558.76615715 C-279.39859174 1563.45072495 -280.22154009 1568.13622189 -281.04418945 1572.82177734 C-281.18189255 1573.60460744 -281.31959564 1574.38743753 -281.46147156 1575.19398975 C-283.82814924 1588.6643827 -286.07978667 1602.07679694 -287.09375 1615.7265625 C-287.20332031 1617.01046875 -287.31289062 1618.294375 -287.42578125 1619.6171875 C-289.05964404 1641.8377214 -288.06091845 1664.14202165 -287.23376465 1686.37438965 C-286.87424412 1696.10526571 -286.53979147 1705.8370378 -286.20489502 1715.56878662 C-286.10406054 1718.43362653 -285.99644192 1721.2981062 -285.88623047 1724.16259766 C-285.72509956 1728.43363336 -285.62082528 1732.70343929 -285.53125 1736.9765625 C-285.48033203 1738.14501709 -285.42941406 1739.31347168 -285.37695312 1740.51733398 C-285.2930396 1747.66820205 -285.2930396 1747.66820205 -287.44580078 1750.51367188 C-293.85082064 1755.59468903 -301.98859667 1754.84913718 -309.74609375 1754.60546875 C-310.64622696 1754.58185776 -311.54636017 1754.55824677 -312.47377014 1754.53392029 C-315.32644616 1754.45783096 -318.17881232 1754.37357382 -321.03125 1754.2890625 C-322.97459461 1754.23578691 -324.91795399 1754.18304696 -326.86132812 1754.13085938 C-331.60566201 1754.00229063 -336.34973543 1753.86640011 -341.09375 1753.7265625 C-345.68792868 1733.1061791 -345.68792868 1733.1061791 -346.09375 1723.7265625 C-346.13709473 1722.9217041 -346.18043945 1722.1168457 -346.22509766 1721.28759766 C-346.77877788 1708.45182381 -345.87094276 1695.74035665 -344.54760742 1682.98193359 C-344.46285797 1682.1494764 -344.37810853 1681.31701921 -344.29079092 1680.45933604 C-341.57874864 1653.85749633 -338.418073 1627.30240637 -335.32442992 1600.742802 C-334.41454529 1592.93003245 -333.50852609 1585.11681586 -332.60268702 1577.30357639 C-330.98678745 1563.36649366 -329.36823384 1549.42972061 -327.74780273 1535.49316406 C-326.18031112 1522.01184465 -324.61372122 1508.53042109 -323.04858398 1495.04882812 C-322.95162943 1494.21369736 -322.85467487 1493.37856659 -322.7547823 1492.51812883 C-321.69540862 1483.39284752 -320.63629191 1474.26753641 -319.57737255 1465.14220238 C-319.43774407 1463.93895427 -319.43774407 1463.93895427 -319.29529482 1462.71139812 C-318.73716163 1457.90168441 -318.73716163 1457.90168441 -318.17905488 1453.09196763 C-317.09439409 1443.74432549 -316.00895971 1434.39677392 -314.92210295 1425.04938684 C-314.2428156 1419.20719627 -313.56401638 1413.36494914 -312.88559548 1407.52265789 C-312.49498708 1404.15914935 -312.10401453 1400.79568413 -311.71251106 1397.43227959 C-311.28758184 1393.78148502 -310.86362681 1390.13057855 -310.43989563 1386.47964478 C-310.25575567 1384.90088418 -310.25575567 1384.90088418 -310.06789571 1383.29022944 C-308.54600544 1371.3654309 -308.54600544 1371.3654309 -307.99609375 1359.375 C-307.99931641 1358.50488281 -308.00253906 1357.63476562 -308.00585938 1356.73828125 C-308.01423828 1355.86816406 -308.02261719 1354.99804688 -308.03125 1354.1015625 C-308.03576172 1353.19277344 -308.04027344 1352.28398438 -308.04492188 1351.34765625 C-308.05653822 1349.14055161 -308.07286832 1346.93359553 -308.09375 1344.7265625 C-308.650625 1345.29503906 -309.2075 1345.86351562 -309.78125 1346.44921875 C-314.01701874 1350.7350726 -318.30038222 1354.87238452 -322.87890625 1358.7890625 C-325.06980835 1360.70561883 -327.19472342 1362.68350245 -329.31689453 1364.67553711 C-346.63850523 1380.85326786 -367.1388942 1393.78096653 -388.09375 1404.7265625 C-388.92422852 1405.16564941 -389.75470703 1405.60473633 -390.61035156 1406.05712891 C-447.74641164 1436.11807578 -530.25610519 1463.55532172 -595.09375 1446.8515625 C-596.04862305 1446.60712402 -597.00349609 1446.36268555 -597.98730469 1446.11083984 C-613.78040949 1441.86309635 -613.78040949 1441.86309635 -618.09375 1436.7265625 C-627.20505583 1409.39264501 -611.34614563 1374.0187615 -599.41796875 1350.0703125 C-594.21738307 1339.94621515 -588.23700546 1330.29976908 -582.09375 1320.7265625 C-581.69704102 1320.10507324 -581.30033203 1319.48358398 -580.89160156 1318.84326172 C-578.69531998 1315.4209807 -576.41684825 1312.06378248 -574.09375 1308.7265625 C-573.67480469 1308.12279785 -573.25585938 1307.5190332 -572.82421875 1306.89697266 C-566.49835472 1297.79797457 -560.00035606 1288.83306843 -553.40722656 1279.92626953 C-547.23027127 1271.57861459 -541.15561394 1263.15800875 -535.09375 1254.7265625 C-536.49560547 1254.03433594 -536.49560547 1254.03433594 -537.92578125 1253.328125 C-542.32538807 1251.14792464 -546.7112985 1248.94101363 -551.09375 1246.7265625 C-551.86879883 1246.3361377 -552.64384766 1245.94571289 -553.44238281 1245.54345703 C-572.66250145 1235.81342194 -590.89194291 1224.5736 -606.7421875 1209.8671875 C-608.545981 1208.22519608 -610.36467894 1206.64870496 -612.24072266 1205.09277344 C-613.18222168 1204.31192383 -614.1237207 1203.53107422 -615.09375 1202.7265625 C-624.02049827 1214.11576867 -632.33123726 1225.76416068 -640.28125 1237.8515625 C-641.40626197 1239.55185531 -642.53192906 1241.25171481 -643.65820312 1242.95117188 C-645.98607126 1246.46481899 -648.31117666 1249.9802695 -650.63427734 1253.49707031 C-655.56189783 1260.95196347 -660.5240102 1268.38382045 -665.48513794 1275.81643677 C-668.17350686 1279.84432345 -670.86034968 1283.87322725 -673.546875 1287.90234375 C-674.08071304 1288.70290695 -674.61455109 1289.50347015 -675.16456604 1290.32829285 C-679.1209173 1296.263061 -683.06914122 1302.20319846 -687.015625 1308.14453125 C-709.84025254 1342.49447776 -709.84025254 1342.49447776 -720.09375 1356.7265625 C-720.66448242 1357.52352539 -721.23521484 1358.32048828 -721.82324219 1359.14160156 C-729.05710495 1369.21860472 -736.56710599 1378.86963506 -744.75927734 1388.18164062 C-746.81308753 1390.55934111 -748.75999712 1393.02040302 -750.71875 1395.4765625 C-754.4608513 1400.0931766 -758.51161626 1404.25398605 -762.76953125 1408.39453125 C-764.7959279 1410.42773932 -766.5999066 1412.50096903 -768.40625 1414.7265625 C-779.88870643 1428.06449784 -796.74488066 1436.96587418 -813.09375 1442.7265625 C-814.05152344 1443.06816406 -815.00929688 1443.40976563 -815.99609375 1443.76171875 C-831.83767619 1448.7630994 -846.52246686 1444.72318473 -860.81323242 1437.46191406 C-863.67469148 1435.94882112 -866.49258121 1434.3690829 -869.29638672 1432.75195312 C-870.79253846 1431.89840282 -872.31711828 1431.09492271 -873.84765625 1430.3046875 C-884.41563328 1424.34986218 -890.38794345 1410.9776451 -893.56298828 1399.76953125 C-897.97766961 1382.77686641 -899.22065054 1366.08276586 -899.41015625 1348.5859375 C-899.43077928 1346.96640559 -899.45177692 1345.34687841 -899.47312927 1343.72735596 C-899.52779867 1339.50579713 -899.57744628 1335.2841943 -899.62597656 1331.06256104 C-899.67659947 1326.73828305 -899.73207056 1322.41406739 -899.78710938 1318.08984375 C-899.89401444 1309.63546968 -899.99560377 1301.18104277 -900.09375 1292.7265625 C-900.47890274 1293.33180252 -900.86405548 1293.93704254 -901.26087952 1294.56062317 C-909.12053426 1306.9115092 -916.98018901 1319.26239522 -924.83984375 1331.61328125 C-925.37472412 1332.45383057 -925.90960449 1333.29437988 -926.46069336 1334.16040039 C-927.56558989 1335.89661917 -928.67057279 1337.632783 -929.77563477 1339.36889648 C-930.62919556 1340.7099646 -930.62919556 1340.7099646 -931.5 1342.078125 C-932.37192993 1343.44795532 -932.37192993 1343.44795532 -933.26147461 1344.84545898 C-934.52516821 1346.83251404 -935.78762616 1348.82035529 -937.04907227 1350.80883789 C-939.08177864 1354.01250909 -941.11877435 1357.21342283 -943.15625 1360.4140625 C-943.83751953 1361.48978516 -944.51878906 1362.56550781 -945.22070312 1363.67382812 C-948.96401665 1369.54590399 -952.82719488 1375.22401138 -957.09375 1380.7265625 C-957.83625 1381.7371875 -958.57875 1382.7478125 -959.34375 1383.7890625 C-970.99854181 1397.36781994 -988.4939553 1398.70174212 -1005.09375 1400.7265625 C-1016.56330821 1383.10167471 -1017.40195535 1365.94134958 -1017.32421875 1345.54296875 C-1017.32340275 1343.46536271 -1017.3233701 1341.38775623 -1017.32406616 1339.31015015 C-1017.32302386 1333.77844982 -1017.30881673 1328.24686039 -1017.29118729 1322.71519089 C-1017.28122167 1319.27929343 -1017.27496035 1315.84340932 -1017.26998901 1312.40750122 C-1017.20514429 1268.02951728 -1016.89347581 1223.64929628 -1015.39868164 1179.29272461 C-1015.03394375 1168.10327078 -1015.04992867 1156.92093787 -1015.09375 1145.7265625 C-1015.67753418 1146.89936768 -1016.26131836 1148.07217285 -1016.86279297 1149.28051758 C-1019.07856684 1153.73049035 -1021.29720193 1158.17903187 -1023.51660156 1162.62719727 C-1024.46754924 1164.53404881 -1025.41777235 1166.44126191 -1026.3671875 1168.34887695 C-1032.41106215 1180.49104674 -1038.57014451 1192.56001849 -1044.93280029 1204.53829956 C-1046.40515092 1207.31351909 -1047.86785725 1210.09375752 -1049.33047485 1212.87411499 C-1057.12882063 1227.69007669 -1064.99690191 1242.44633447 -1073.44628906 1256.90429688 C-1074.99078744 1259.55017732 -1076.52644686 1262.20104933 -1078.06018066 1264.85317993 C-1087.04735339 1280.38301232 -1096.31165496 1295.68039753 -1106.09375 1310.7265625 C-1107.34645751 1312.6600893 -1108.59906006 1314.5936841 -1109.8515625 1316.52734375 C-1112.92424195 1321.26568308 -1116.0053442 1325.99846011 -1119.09375 1330.7265625 C-1123.3662144 1330.30416033 -1127.63627163 1329.86084316 -1131.90625 1329.4140625 C-1133.6996582 1329.23713867 -1133.6996582 1329.23713867 -1135.52929688 1329.05664062 C-1142.97145512 1328.26578457 -1149.94809506 1326.96272356 -1157.09375 1324.7265625 C-1161.7331628 1304.14454693 -1165.65739718 1283.70555305 -1168.09375 1262.7265625 C-1168.20557617 1261.76379395 -1168.31740234 1260.80102539 -1168.43261719 1259.80908203 C-1170.60036324 1240.65837914 -1171.29950556 1221.61560495 -1171.28125 1202.3515625 C-1171.28084213 1200.71602921 -1171.28084213 1200.71602921 -1171.28042603 1199.04745483 C-1171.25649295 1177.93522642 -1170.4601698 1156.92103042 -1169.26812744 1135.84667969 C-1168.93234024 1129.83847471 -1168.6144396 1123.82929728 -1168.29296875 1117.8203125 C-1167.57539301 1104.45486097 -1166.8399606 1091.09044378 -1166.09375 1077.7265625 C-1178.62049521 1102.58790352 -1178.62049521 1102.58790352 -1190.76342773 1127.63769531 C-1195.27107666 1137.13441716 -1199.8658871 1146.58821911 -1204.46875 1156.0390625 C-1205.08820999 1157.31120102 -1205.08820999 1157.31120102 -1205.72018433 1158.60903931 C-1211.23236241 1169.92289922 -1216.7809422 1181.21645487 -1222.47021484 1192.44262695 C-1225.79451334 1199.02918141 -1228.98259526 1205.67387486 -1232.15234375 1212.3359375 C-1237.7908439 1224.17187666 -1243.61070475 1235.91318627 -1249.48266602 1247.63476562 C-1251.16137089 1250.98678785 -1252.8357543 1254.34094427 -1254.50976562 1257.6953125 C-1260.54482718 1269.7693703 -1266.68060697 1281.77962071 -1273.01791382 1293.69781494 C-1274.02407897 1295.59518104 -1275.022599 1297.49626899 -1276.0168457 1299.39990234 C-1288.29862669 1322.91446249 -1301.08019497 1346.23943085 -1318.09375 1366.7265625 C-1318.93035156 1367.74621094 -1319.76695312 1368.76585937 -1320.62890625 1369.81640625 C-1326.44333765 1376.55736493 -1332.93947275 1382.03063515 -1340.10302734 1387.25585938 C-1341.48505118 1388.27686889 -1342.85169422 1389.3188981 -1344.20556641 1390.37695312 C-1353.49106478 1397.62639419 -1361.01413525 1402.64155104 -1373.109375 1401.39453125 C-1382.59170761 1399.95663655 -1393.53186188 1397.52667739 -1399.734375 1389.640625 C-1411.28836008 1371.60940586 -1413.23999671 1350.43822527 -1413.26171875 1329.56640625 C-1413.26595352 1328.31992813 -1413.27018829 1327.07345001 -1413.27455139 1325.78919983 C-1413.28442936 1321.74745014 -1413.28472046 1317.7058166 -1413.28125 1313.6640625 C-1413.28098312 1312.97213806 -1413.28071625 1312.28021362 -1413.28044128 1311.56732178 C-1413.26865216 1287.24089677 -1412.80741571 1262.99914401 -1411.09375 1238.7265625 C-1411.0329425 1237.85388733 -1410.97213501 1236.98121216 -1410.90948486 1236.08209229 C-1405.60893211 1160.83532976 -1392.57752518 1086.51773717 -1378.22292709 1012.55165386 C-1377.38352632 1008.22611153 -1376.54966056 1003.89954009 -1375.71923828 999.57226562 C-1374.70579255 994.29518434 -1373.68228831 989.0201804 -1372.64822388 983.74710083 C-1372.28729047 981.90294149 -1371.92882383 980.05829708 -1371.57321167 978.21310425 C-1367.00801389 954.60099958 -1360.5076382 930.4934607 -1342.09375 913.7265625 C-1331.54673434 906.88157956 -1319.81438274 906.3909701 -1307.625 908.2578125 C-1295.19244939 911.20573687 -1282.93673829 917.28645924 -1274.09375 926.7265625 C-1274.09375 927.3865625 -1274.09375 928.0465625 -1274.09375 928.7265625 C-1273.43375 928.7265625 -1272.77375 928.7265625 -1272.09375 928.7265625 C-1271.4428241 929.97391817 -1270.79823331 931.22458082 -1270.15625 932.4765625 C-1269.79660156 933.17265625 -1269.43695312 933.86875 -1269.06640625 934.5859375 C-1266.70796442 939.77640385 -1266.8422444 944.93164359 -1266.78125 950.5390625 C-1266.75224609 951.41626953 -1266.72324219 952.29347656 -1266.69335938 953.19726562 C-1266.62344745 960.38743826 -1268.21448376 964.32717074 -1272.91015625 969.87109375 C-1273.77447266 970.69673828 -1273.77447266 970.69673828 -1274.65625 971.5390625 C-1275.23503906 972.10238281 -1275.81382812 972.66570313 -1276.41015625 973.24609375 C-1280.41775549 976.77017754 -1282.8696922 976.92369676 -1288.09375 976.7265625 C-1288.36759521 977.60836182 -1288.64144043 978.49016113 -1288.92358398 979.39868164 C-1290.0037165 982.4705127 -1291.25405246 985.12378237 -1292.81640625 987.97265625 C-1315.3787228 1029.79291389 -1324.0530549 1073.81861731 -1330.90209961 1120.36547852 C-1333.45987979 1137.72401162 -1336.20671238 1155.04473506 -1339.09375 1172.3515625 C-1339.40987747 1174.25001923 -1339.40987747 1174.25001923 -1339.73239136 1176.18682861 C-1342.60132135 1193.36739599 -1345.69858838 1210.49222798 -1348.9704895 1227.6000061 C-1354.31104612 1255.64731143 -1357.28819649 1283.5314128 -1357.15625 1312.1015625 C-1357.15122156 1314.01301965 -1357.14666104 1315.92447809 -1357.14257812 1317.8359375 C-1357.13168688 1322.46617837 -1357.11449751 1327.09635573 -1357.09375 1331.7265625 C-1351.59082638 1322.96489763 -1346.094308 1314.20526997 -1340.84375 1305.2890625 C-1340.30564697 1304.37640625 -1339.76754395 1303.46375 -1339.21313477 1302.5234375 C-1332.66237 1291.35776897 -1326.35545375 1280.05622468 -1320.09375 1268.7265625 C-1319.56894043 1267.77749023 -1319.04413086 1266.82841797 -1318.50341797 1265.85058594 C-1298.57919542 1229.7454413 -1279.79782611 1192.88636023 -1262.74121094 1155.33789062 C-1260.89840269 1151.29835008 -1259.03276578 1147.26979222 -1257.1640625 1143.2421875 C-1242.15357995 1110.85304188 -1227.9508286 1078.12736685 -1213.92474365 1045.3019104 C-1206.82545071 1028.69275213 -1199.59187779 1012.16000223 -1192.09375 995.7265625 C-1191.61260742 994.66808105 -1191.13146484 993.60959961 -1190.63574219 992.51904297 C-1187.89099981 986.48189835 -1185.12701152 980.45412349 -1182.34179688 974.43554688 C-1181.14833297 971.84503915 -1179.97129157 969.24762287 -1178.796875 966.6484375 C-1167.97844619 942.92946164 -1152.27174646 915.0892739 -1128.09375 902.7265625 C-1118.04844393 900.03468309 -1101.69621647 900.02549046 -1092.578125 905.13671875 C-1090.50840339 906.87070308 -1088.81170077 908.64607056 -1087.09375 910.7265625 C-1086.56652344 911.32597656 -1086.03929687 911.92539063 -1085.49609375 912.54296875 C-1074.21278203 926.36574704 -1069.74327477 944.34901086 -1068.09375 961.7265625 C-1067.98289062 962.68820312 -1067.87203125 963.64984375 -1067.7578125 964.640625 C-1062.35482857 1018.81649086 -1076.2177962 1073.89244686 -1087.68447876 1126.41049194 C-1087.96391327 1127.69042023 -1088.24334778 1128.97034851 -1088.53125 1130.2890625 C-1088.80963715 1131.56407623 -1089.08802429 1132.83908997 -1089.37484741 1134.15274048 C-1093.23341718 1151.85140294 -1096.9573621 1169.56829554 -1100.40625 1187.3515625 C-1100.59919647 1188.33029327 -1100.79214294 1189.30902405 -1100.99093628 1190.31741333 C-1101.53152527 1193.06913282 -1102.05903031 1195.8230153 -1102.58203125 1198.578125 C-1102.73759491 1199.36397476 -1102.89315857 1200.14982452 -1103.05343628 1200.95948792 C-1104.09576955 1206.58594645 -1104.25652317 1212.01188307 -1104.09375 1217.7265625 C-1103.7942041 1217.03248291 -1103.4946582 1216.33840332 -1103.18603516 1215.62329102 C-1093.25044708 1192.61583426 -1083.1890358 1169.66433283 -1073.09375 1146.7265625 C-1072.75625732 1145.95963074 -1072.41876465 1145.19269897 -1072.07104492 1144.40252686 C-1064.04484582 1126.16491008 -1055.9941616 1107.9381016 -1047.87817383 1089.74023438 C-1044.79949797 1082.83459109 -1041.7358382 1075.92397206 -1038.734375 1068.984375 C-1029.99031942 1048.83751551 -1020.38712556 1029.89482005 -1004.09375 1014.7265625 C-1002.7325 1013.3653125 -1002.7325 1013.3653125 -1001.34375 1011.9765625 C-1000.60125 1011.2340625 -999.85875 1010.4915625 -999.09375 1009.7265625 C-998.3821875 1008.89125 -998.3821875 1008.89125 -997.65625 1008.0390625 C-990.99607132 1002.44451241 -979.19041901 1004.20783932 -971.09375 1004.7265625 C-956.23903368 1006.66031255 -944.19557885 1017.46592929 -934.84375 1028.5390625 C-912.00258841 1058.77947362 -915.11571096 1108.02262243 -918.28515625 1143.9296875 C-918.34880182 1144.66734722 -918.4124474 1145.40500694 -918.47802162 1146.16501999 C-920.13363758 1165.12727196 -922.88242264 1183.93106265 -925.63299561 1202.75933838 C-926.32909909 1207.52713583 -927.01542428 1212.29614088 -927.6887455 1217.06721115 C-927.99851824 1219.23571733 -928.32185097 1221.40187912 -928.64604187 1223.56826782 C-930.05677888 1233.35020009 -930.32358657 1242.85992818 -930.09375 1252.7265625 C-921.42329274 1241.42242349 -913.27728008 1229.8493872 -905.40625 1217.9765625 C-904.8433728 1217.12961823 -904.28049561 1216.28267395 -903.70056152 1215.4100647 C-888.27405699 1192.17364036 -873.92933411 1168.50919879 -861.09375 1143.7265625 C-860.53123535 1142.64536133 -859.9687207 1141.56416016 -859.38916016 1140.45019531 C-851.26403051 1124.75565877 -843.86488358 1108.81954863 -836.86181641 1092.59814453 C-833.62586972 1085.14130217 -830.22184751 1077.82719538 -826.42578125 1070.63671875 C-825.88941292 1069.6196862 -825.88941292 1069.6196862 -825.34220886 1068.58210754 C-819.14257459 1057.04115942 -811.55235219 1046.69915575 -803.09375 1036.7265625 C-802.44535156 1035.86546875 -801.79695312 1035.004375 -801.12890625 1034.1171875 C-793.77649665 1025.48057583 -781.73144598 1022.86416098 -771.09375 1020.7265625 C-771.691875 1019.9634375 -772.29 1019.2003125 -772.90625 1018.4140625 C-783.5577599 1002.26622187 -776.79830753 977.86866673 -773.46044922 960.41503906 C-763.86045461 914.49326711 -763.86045461 914.49326711 -758.09375 908.7265625 C-732.4126927 907.22778026 -705.80583842 911.25183688 -684.09375 925.7265625 C-686.1015711 960.31658623 -692.3279963 991.61908131 -715.09375 1018.7265625 C-715.65449219 1019.42523437 -716.21523438 1020.12390625 -716.79296875 1020.84375 C-721.95145309 1026.6908985 -729.12492278 1029.54661222 -736.09375 1032.7265625 C-735.49820313 1033.6134375 -734.90265625 1034.5003125 -734.2890625 1035.4140625 C-724.03629643 1050.88442838 -720.20793778 1067.14018275 -723.765625 1085.7109375 C-724.46547051 1088.73479829 -725.268362 1091.73453101 -726.09375 1094.7265625 C-733.68375 1094.7265625 -741.27375 1094.7265625 -749.09375 1094.7265625 C-749.42375 1096.8303125 -749.75375 1098.9340625 -750.09375 1101.1015625 C-751.39898487 1108.43104763 -753.39929688 1115.48271732 -755.609375 1122.5859375 C-756.13292572 1124.27651779 -756.13292572 1124.27651779 -756.66705322 1126.00125122 C-760.35203658 1137.76208897 -764.42603419 1149.37894799 -768.55883789 1160.98849487 C-770.77780798 1167.22805704 -772.97379669 1173.47571181 -775.171875 1179.72265625 C-775.60266357 1180.94616287 -776.03345215 1182.16966949 -776.47729492 1183.43025208 C-799.44927064 1248.71903972 -815.85451769 1313.70295483 -822.09375 1382.7265625 C-819.68880913 1382.27302386 -817.28558923 1381.81240862 -814.8828125 1381.34765625 C-813.86779663 1381.15737854 -813.86779663 1381.15737854 -812.83227539 1380.96325684 C-802.95803018 1379.03708788 -796.06255536 1374.50174857 -789.84375 1366.6015625 C-786.85735694 1362.87351553 -783.815887 1359.25288726 -780.59375 1355.7265625 C-776.73405195 1351.48623678 -773.09029712 1347.10931393 -769.484375 1342.65234375 C-766.43101443 1338.91546946 -763.3067188 1335.24150786 -760.16259766 1331.58081055 C-756.32142747 1327.07869269 -752.71046686 1322.40969642 -749.09375 1317.7265625 C-747.98664288 1316.30783956 -746.87858718 1314.88985627 -745.76953125 1313.47265625 C-738.0919237 1303.64391691 -730.52623436 1293.74183517 -723.09375 1283.7265625 C-722.536875 1282.97761719 -721.98 1282.22867187 -721.40625 1281.45703125 C-713.13728945 1270.32715801 -705.02043981 1259.10272905 -697.09375 1247.7265625 C-696.63935547 1247.07655273 -696.18496094 1246.42654297 -695.71679688 1245.75683594 C-676.88709553 1218.7856594 -659.41988619 1190.83936747 -644.09375 1161.7265625 C-643.60600098 1160.80069336 -643.11825195 1159.87482422 -642.61572266 1158.92089844 C-638.08023812 1150.29212806 -633.59347173 1141.63829983 -629.12890625 1132.97265625 C-616.56076727 1108.63609382 -604.09082691 1084.87189722 -585.63867188 1064.46875 C-583.48473291 1062.03978216 -581.43075522 1059.52963441 -579.38183594 1057.01171875 C-578.09375 1055.7265625 -578.09375 1055.7265625 -576.09375 1055.7265625 C-575.7855835 1054.93052612 -575.7855835 1054.93052612 -575.47119141 1054.1184082 C-573.52009452 1050.73044361 -570.81518301 1048.18315245 -568.0546875 1045.45703125 C-567.45500153 1044.8578035 -566.85531555 1044.25857574 -566.23745728 1043.64118958 C-564.96714709 1042.37389713 -563.6944107 1041.10903267 -562.41943359 1039.84643555 C-560.4913641 1037.93646432 -558.57125968 1036.01877214 -556.65234375 1034.09960938 C-550.63627479 1028.10082783 -544.60845507 1022.18872827 -538.09375 1016.7265625 C-537.08367154 1015.85006787 -536.07451179 1014.97251307 -535.06640625 1014.09375 C-526.96956887 1007.1598141 -518.5886865 1000.66294941 -510.08496094 994.23730469 C-507.27968386 992.10892625 -504.50058571 989.94799352 -501.71875 987.7890625 C-499.51356326 986.09722337 -497.30586955 984.40927588 -495.09375 982.7265625 C-494.37429199 982.17822754 -493.65483398 981.62989258 -492.91357422 981.06494141 C-471.5163678 964.82294002 -449.15274439 949.62373239 -421.09375 952.7265625 C-408.90322363 955.7306086 -401.3555136 963.65813617 -394.40625 973.6640625 C-393.86419922 974.42396484 -393.32214844 975.18386719 -392.76367188 975.96679688 C-389.71265002 980.27650325 -386.84904657 984.65218172 -384.16088867 989.19750977 C-383.15842274 990.89319206 -383.15842274 990.89319206 -381.09375 991.7265625 C-380.9994873 991.21585205 -380.90522461 990.7051416 -380.80810547 990.17895508 C-379.81304773 986.76290759 -378.23405005 983.66790454 -376.6640625 980.48828125 C-376.31781326 979.77910553 -375.97156403 979.06992981 -375.61482239 978.33926392 C-374.48619248 976.02918578 -373.35244191 973.72165998 -372.21875 971.4140625 C-371.04830461 969.02126829 -369.87925081 966.62779793 -368.71037292 964.23423767 C-367.93230494 962.64099177 -367.1538322 961.04794347 -366.37495422 959.45509338 C-363.22107351 953.00152986 -360.11507451 946.52642414 -357.03125 940.0390625 C-354.19923684 934.08800081 -351.32760604 928.16534282 -348.34375 922.2890625 C-337.97573819 901.75718718 -328.56742794 880.73318693 -319.28051758 859.69604492 C-315.80596088 851.82639594 -312.30952964 843.96836533 -308.75 836.13671875 C-297.41569325 811.18384327 -286.59990116 786.03909808 -276.09375 760.7265625 C-275.72012329 759.82655518 -275.34649658 758.92654785 -274.96154785 757.99926758 C-262.84889494 728.79597783 -251.15169572 699.42897989 -239.56982422 670.01171875 C-237.98406545 665.98417965 -236.39490533 661.95802245 -234.80126953 657.93359375 C-225.97637355 635.64596823 -217.43528434 613.29932344 -209.72930908 590.59747314 C-209.12428871 588.81646005 -208.51513444 587.03685286 -207.90576172 585.25732422 C-190.4404384 533.93451562 -179.08547688 480.62987861 -168.48217773 427.54736328 C-168.26095245 426.44063766 -168.03972717 425.33391205 -167.8117981 424.19364929 C-167.39836155 422.12018795 -166.98693384 420.04632469 -166.57785034 417.97200012 C-166.39594147 417.0569017 -166.21403259 416.14180328 -166.02661133 415.19897461 C-165.86961258 414.4031749 -165.71261383 413.60737518 -165.55085754 412.78746033 C-165.09375 410.7265625 -165.09375 410.7265625 -164.09375 407.7265625 C-164.70725815 407.83935043 -165.3207663 407.95213837 -165.9528656 408.06834412 C-175.51558999 409.74757626 -185.13313892 410.9021328 -194.76898193 412.07170105 C-197.95899653 412.45894101 -201.14860756 412.84936752 -204.33813477 413.24060059 C-208.90500228 413.80062614 -213.47200043 414.35956815 -218.03909302 414.91775513 C-308.44135029 425.97548621 -398.72827848 437.89169129 -492.09375 454.7265625 C-493.91670593 455.05466919 -493.91670593 455.05466919 -495.77648926 455.3894043 C-567.84804401 468.3813801 -639.58047874 484.12178129 -709.96435547 504.41552734 C-711.41369728 504.8328437 -711.41369728 504.8328437 -712.89231873 505.2585907 C-714.75949228 505.79735301 -716.62594954 506.33860553 -718.49159241 506.88264465 C-719.32702072 507.12399643 -720.16244904 507.36534821 -721.02319336 507.61401367 C-721.76242538 507.82918137 -722.50165741 508.04434906 -723.26329041 508.26603699 C-725.09375 508.7265625 -725.09375 508.7265625 -727.09375 508.7265625 C-727.238125 509.9846875 -727.3825 511.2428125 -727.53125 512.5390625 C-727.83123686 515.15323373 -728.25188297 517.20096142 -729.09375 519.7265625 C-737.01375 519.7265625 -744.93375 519.7265625 -753.09375 519.7265625 C-760.24841637 503.79116922 -764.28660483 489.42707424 -764.15625 471.7890625 C-764.15173828 470.62826172 -764.14722656 469.46746094 -764.14257812 468.27148438 C-764.13085647 465.42312316 -764.1144476 462.57487028 -764.09375 459.7265625 C-724.98900691 438.25804214 -683.32475054 427.83261552 -639.91015625 418.97265625 C-638.19361108 418.62166602 -636.47706857 418.27066272 -634.76052856 417.91964722 C-629.5387991 416.85267795 -624.31635023 415.78926005 -619.09375 414.7265625 C-618.31170322 414.56729153 -617.52965645 414.40802055 -616.72391129 414.24392319 C-524.22610949 395.40854264 -431.23195452 378.28710153 -199.19140625 347.46875 C-198.51036205 347.38843977 -197.82931786 347.30812954 -197.12763596 347.22538567 C-190.77673356 346.478118 -184.42626505 345.74573503 -178.06225586 345.11865234 C-177.17908188 345.03124786 -176.2959079 344.94384338 -175.38597107 344.85379028 C-173.83795724 344.70420127 -172.28930003 344.56101014 -170.73988342 344.42672729 C-165.48399451 343.92664492 -160.86910996 342.60089734 -156.02734375 340.53125 C-154.09375 339.7265625 -154.09375 339.7265625 -152.09375 339.7265625 C-151.80356995 338.84972305 -151.51338989 337.97288361 -151.2144165 337.06947327 C-150.5361218 335.0461428 -149.84569689 333.02674789 -149.13275146 331.0153656 C-146.43173504 323.28452002 -144.60692145 315.53101826 -142.984375 307.51171875 C-142.69839232 306.1258131 -142.4117458 304.7400443 -142.12449646 303.35440063 C-141.51080262 300.38728829 -140.90160971 297.41930177 -140.29598999 294.45053101 C-139.32730302 289.70278246 -138.34758664 284.9573483 -137.36645508 280.2121582 C-135.62294757 271.77336943 -133.88787595 263.33286349 -132.15460205 254.89196777 C-129.04120597 239.73038613 -125.91889677 224.57064499 -122.78125 209.4140625 C-122.52773018 208.18933857 -122.52773018 208.18933857 -122.26908875 206.93987274 C-117.06525386 181.81415352 -111.68834244 156.7471636 -105.60247803 131.81756592 C-105.11261752 129.80411288 -104.62858391 127.78936623 -104.14697266 125.77392578 C-99.94327085 108.22499546 -95.28956608 90.79717964 -90.58041382 73.37805176 C-89.93501215 70.9895206 -89.29156071 68.60046141 -88.65029907 66.21081543 C-72.9229671 7.70723352 -72.9229671 7.70723352 -57.09375 -2.2734375 C-40.54500585 -10.67952896 -15.47608473 -11.37257742 0 0 Z M-225.09375 755.7265625 C-231.2432243 768.95958723 -237.33586809 782.21298152 -243.28125 795.5390625 C-251.0777763 812.999575 -259.076848 830.36634651 -267.09375 847.7265625 C-267.39259094 848.37387329 -267.69143188 849.02118408 -267.99932861 849.68811035 C-272.01127593 858.37672652 -276.04442608 867.0553067 -280.09375 875.7265625 C-280.54110504 876.68508118 -280.54110504 876.68508118 -280.99749756 877.66296387 C-290.73156305 898.51576678 -300.65816208 919.26817141 -310.75976562 939.9453125 C-312.78420856 944.09017196 -314.80241892 948.23803908 -316.81942749 952.38652039 C-327.54148596 974.4344808 -338.38867845 996.41857982 -349.34375 1018.3515625 C-349.9093866 1019.48542389 -350.47502319 1020.61928528 -351.05780029 1021.7875061 C-357.9116304 1035.52002892 -364.87327886 1049.18306825 -372.09375 1062.7265625 C-372.71996811 1063.90506882 -373.34611282 1065.08361414 -373.97216797 1066.26220703 C-381.07142637 1079.59188367 -388.33975803 1092.81552687 -395.80859375 1105.94140625 C-399.29019125 1112.06010194 -402.72393969 1118.20512445 -406.15625 1124.3515625 C-410.97622868 1132.97741708 -415.84945486 1141.57030846 -420.7746582 1150.13647461 C-423.59271598 1155.05206137 -426.33847416 1159.99903715 -429.03051758 1164.98461914 C-434.55861449 1175.21144427 -440.54035264 1185.11697236 -446.70019531 1194.97143555 C-447.35600586 1196.02242432 -448.01181641 1197.07341309 -448.6875 1198.15625 C-449.27208984 1199.08679199 -449.85667969 1200.01733398 -450.45898438 1200.97607422 C-454.18718991 1206.90241832 -454.18718991 1206.90241832 -454.71875 1213.6640625 C-453.02674255 1219.08182666 -448.91156055 1222.91198022 -444.21142578 1225.9387207 C-442.12212084 1227.03213236 -440.01315142 1227.98947115 -437.84375 1228.9140625 C-437.00295898 1229.28152588 -436.16216797 1229.64898926 -435.29589844 1230.02758789 C-416.28401608 1238.07426915 -396.37272235 1244.15637306 -376.64715576 1250.1802063 C-351.07268121 1258.00135872 -324.67913717 1266.48736215 -303.76806641 1283.76782227 C-300.73493966 1286.13920178 -299.29296547 1286.73223038 -295.38671875 1286.62109375 C-291.98704228 1285.88449854 -291.98704228 1285.88449854 -289.09375 1283.7265625 C-285.12997559 1275.10317867 -283.6031819 1265.64189326 -282.32275391 1256.31201172 C-282.15685068 1255.12604841 -281.99094746 1253.94008511 -281.82001686 1252.71818352 C-279.39276138 1235.02390613 -277.31694185 1217.28249903 -275.17552602 1199.55194962 C-269.70907051 1154.30183189 -263.99842631 1109.09015782 -258.0078125 1063.90625 C-257.83832942 1062.62746255 -257.66884634 1061.3486751 -257.49422741 1060.03113651 C-255.43142235 1044.47042227 -253.36049732 1028.9107949 -251.28548026 1013.35170484 C-247.97619342 988.53767125 -244.67751971 963.72222328 -241.3828125 938.90625 C-241.21768882 937.66271082 -241.05256514 936.41917165 -240.88243771 935.13794947 C-231.11128303 862.88831857 -231.11128303 862.88831857 -222.92675781 790.44775391 C-222.57166321 786.87962587 -222.20424953 783.31288017 -221.8359375 779.74609375 C-221.5983108 777.41412839 -221.36130025 775.08210014 -221.125 772.75 C-220.96578064 771.19459 -220.96578064 771.19459 -220.80334473 769.60775757 C-220.3440453 764.96046555 -219.9633019 760.40391732 -220.09375 755.7265625 C-221.74375 755.7265625 -223.39375 755.7265625 -225.09375 755.7265625 Z M-470.37109375 1055.68359375 C-493.45393493 1083.0584825 -514.74780896 1116.45466999 -519.09375 1152.7265625 C-519.21492188 1153.69980469 -519.33609375 1154.67304687 -519.4609375 1155.67578125 C-521.26699425 1173.47165685 -521.26699425 1173.47165685 -515.6640625 1189.86328125 C-510.57994883 1195.89592359 -506.43427706 1199.3156577 -498.48828125 1200.53515625 C-497.69808594 1200.59832031 -496.90789063 1200.66148437 -496.09375 1200.7265625 C-495.28156006 1200.80084473 -494.46937012 1200.87512695 -493.63256836 1200.95166016 C-491.05681006 1200.97448152 -491.05681006 1200.97448152 -489.47558594 1199.31225586 C-489.01442383 1198.65362549 -488.55326172 1197.99499512 -488.078125 1197.31640625 C-487.29199829 1196.21462036 -487.29199829 1196.21462036 -486.48999023 1195.09057617 C-485.67510132 1193.8894519 -485.67510132 1193.8894519 -484.84375 1192.6640625 C-484.27019775 1191.84204346 -483.69664551 1191.02002441 -483.10571289 1190.1730957 C-478.07841295 1182.88889945 -473.47817691 1175.41010867 -469.09375 1167.7265625 C-468.1615996 1166.10538751 -467.22929918 1164.48429879 -466.296875 1162.86328125 C-463.21491738 1157.49246115 -460.15373414 1152.10992186 -457.09375 1146.7265625 C-453.63522408 1140.6476302 -450.1691351 1134.57312653 -446.68847656 1128.50683594 C-445.58996991 1126.59168074 -444.49305772 1124.67561038 -443.39746094 1122.75878906 C-437.49268724 1112.44274389 -431.56206244 1102.22493146 -424.84375 1092.4140625 C-414.34047306 1076.87459008 -399.09375 1052.35559117 -399.09375 1032.7265625 C-426.02464205 1032.13424083 -450.92706018 1034.80633903 -470.37109375 1055.68359375 Z M-487.28125 1265.3515625 C-488.06757812 1266.36992188 -488.85390625 1267.38828125 -489.6640625 1268.4375 C-490.47680236 1269.53174752 -491.28672488 1270.62809349 -492.09375 1271.7265625 C-492.83367187 1272.72945312 -493.57359375 1273.73234375 -494.3359375 1274.765625 C-496.43163565 1277.66573255 -498.49823499 1280.58246375 -500.54785156 1283.51513672 C-501.66975802 1285.12003702 -502.79447668 1286.72297262 -503.92089844 1288.32470703 C-512.11918829 1299.98247278 -520.16525342 1311.70499645 -527.81689453 1323.72900391 C-529.09517032 1325.7287845 -530.38677859 1327.71923016 -531.68359375 1329.70703125 C-538.97756874 1340.89148596 -546.05225529 1352.20906812 -553.11035156 1363.54345703 C-556.47389706 1368.94152524 -559.8468211 1374.33372866 -563.21875 1379.7265625 C-565.87156825 1383.97060979 -565.87156825 1383.97060979 -568.51782227 1388.21875 C-569.53572918 1389.83857027 -570.56910027 1391.44882133 -571.62084961 1393.046875 C-572.30546265 1394.09488281 -572.30546265 1394.09488281 -573.00390625 1395.1640625 C-573.40230713 1395.76089844 -573.80070801 1396.35773438 -574.21118164 1396.97265625 C-575.71117513 1399.95355618 -575.43428367 1402.45743924 -575.09375 1405.7265625 C-567.69103091 1408.46234999 -561.15941257 1408.13928073 -553.90234375 1405.01953125 C-548.79528281 1402.66194 -543.91250209 1399.95391278 -539.03125 1397.1640625 C-538.06026367 1396.61177979 -537.08927734 1396.05949707 -536.08886719 1395.49047852 C-515.48690128 1383.71083191 -494.99529832 1371.65964767 -475.09375 1358.7265625 C-474.06894531 1358.06269531 -473.04414062 1357.39882812 -471.98828125 1356.71484375 C-469.0011716 1354.7495316 -466.04356825 1352.74747164 -463.09375 1350.7265625 C-462.39765625 1350.25057617 -461.7015625 1349.77458984 -460.984375 1349.28417969 C-448.5275736 1340.7410294 -436.40853189 1331.80975329 -424.46630859 1322.56176758 C-422.85923825 1321.31867767 -421.24742112 1320.08170453 -419.63134766 1318.8503418 C-411.01978875 1312.25461045 -403.83232799 1305.15980339 -400.09375 1294.7265625 C-399.60161539 1290.6488757 -400.11491269 1287.43528617 -401.12109375 1283.515625 C-401.44207031 1282.26523438 -401.76304687 1281.01484375 -402.09375 1279.7265625 C-424.62776446 1272.98222719 -447.52360334 1267.07254762 -470.53125 1262.1640625 C-471.25650879 1262.0079248 -471.98176758 1261.85178711 -472.72900391 1261.69091797 C-481.21067607 1259.83987665 -481.21067607 1259.83987665 -487.28125 1265.3515625 Z " fill="#AC2248" transform="translate(1574.09375,112.2734375)"/>
<path d="M0 0 C1.51400391 0.48533203 1.51400391 0.48533203 3.05859375 0.98046875 C11.19231988 3.8727226 14.11973618 8.54905126 17.76953125 16.140625 C25.10844953 33.19487319 29.21582459 56.47849094 22.625 74.4375 C18.49349591 84.63754895 11.03243818 95.95110196 1 101 C-14.91359147 107.32729944 -33.93061759 110.58982091 -50.21484375 103.625 C-65.74654869 95.79571583 -75.87784541 83.91692361 -82.0625 67.8125 C-86.9087073 51.44384179 -84.47798164 34.98744152 -76.40625 20.05078125 C-75.02733267 17.92260526 -73.60427877 15.96125179 -72 14 C-71.4225 13.20464844 -70.845 12.40929688 -70.25 11.58984375 C-63.00491354 3.25044736 -52.13727009 -2.80351566 -41.15136719 -3.84912109 C-26.84758975 -4.85226844 -13.67616194 -4.56918843 0 0 Z " fill="#8B1939" transform="translate(1549,1661)"/>
</svg>
